<svg xmlns="http://www.w3.org/2000/svg" xmlns:xlink="http://www.w3.org/1999/xlink" width="290" height="81.587" viewBox="0 0 290 81.587" xml:space="preserve"><desc/><rect width="290" height="81.587" x="0" y="0" style="fill:#fff"/><line style="stroke:#000;stroke-width:4" x1="2" x2="2" y1="0" y2="60" fill="none"/><line style="stroke:#000;stroke-width:2" x1="7" x2="7" y1="0" y2="60" fill="none"/><line style="stroke:#000;stroke-width:2" x1="13" x2="13" y1="0" y2="60" fill="none"/><line style="stroke:#000;stroke-width:2" x1="23" x2="23" y1="0" y2="60" fill="none"/><line style="stroke:#000;stroke-width:6" x1="33" x2="33" y1="0" y2="60" fill="none"/><line style="stroke:#000;stroke-width:4" x1="40" x2="40" y1="0" y2="60" fill="none"/><line style="stroke:#000;stroke-width:2" x1="45" x2="45" y1="0" y2="60" fill="none"/><line style="stroke:#000;stroke-width:4" x1="52" x2="52" y1="0" y2="60" fill="none"/><line style="stroke:#000;stroke-width:6" x1="59" x2="59" y1="0" y2="60" fill="none"/><line style="stroke:#000;stroke-width:2" x1="67" x2="67" y1="0" y2="60" fill="none"/><line style="stroke:#000;stroke-width:2" x1="75" x2="75" y1="0" y2="60" fill="none"/><line style="stroke:#000;stroke-width:4" x1="80" x2="80" y1="0" y2="60" fill="none"/><line style="stroke:#000;stroke-width:4" x1="90" x2="90" y1="0" y2="60" fill="none"/><line style="stroke:#000;stroke-width:6" x1="97" x2="97" y1="0" y2="60" fill="none"/><line style="stroke:#000;stroke-width:2" x1="107" x2="107" y1="0" y2="60" fill="none"/><line style="stroke:#000;stroke-width:2" x1="111" x2="111" y1="0" y2="60" fill="none"/><line style="stroke:#000;stroke-width:6" x1="117" x2="117" y1="0" y2="60" fill="none"/><line style="stroke:#000;stroke-width:4" x1="128" x2="128" y1="0" y2="60" fill="none"/><line style="stroke:#000;stroke-width:2" x1="133" x2="133" y1="0" y2="60" fill="none"/><line style="stroke:#000;stroke-width:4" x1="140" x2="140" y1="0" y2="60" fill="none"/><line style="stroke:#000;stroke-width:6" x1="149" x2="149" y1="0" y2="60" fill="none"/><line style="stroke:#000;stroke-width:2" x1="155" x2="155" y1="0" y2="60" fill="none"/><line style="stroke:#000;stroke-width:8" x1="162" x2="162" y1="0" y2="60" fill="none"/><line style="stroke:#000;stroke-width:2" x1="171" x2="171" y1="0" y2="60" fill="none"/><line style="stroke:#000;stroke-width:2" x1="177" x2="177" y1="0" y2="60" fill="none"/><line style="stroke:#000;stroke-width:2" x1="183" x2="183" y1="0" y2="60" fill="none"/><line style="stroke:#000;stroke-width:4" x1="188" x2="188" y1="0" y2="60" fill="none"/><line style="stroke:#000;stroke-width:8" x1="202" x2="202" y1="0" y2="60" fill="none"/><line style="stroke:#000;stroke-width:2" x1="209" x2="209" y1="0" y2="60" fill="none"/><line style="stroke:#000;stroke-width:2" x1="215" x2="215" y1="0" y2="60" fill="none"/><line style="stroke:#000;stroke-width:2" x1="221" x2="221" y1="0" y2="60" fill="none"/><line style="stroke:#000;stroke-width:4" x1="226" x2="226" y1="0" y2="60" fill="none"/><line style="stroke:#000;stroke-width:2" x1="233" x2="233" y1="0" y2="60" fill="none"/><line style="stroke:#000;stroke-width:2" x1="243" x2="243" y1="0" y2="60" fill="none"/><line style="stroke:#000;stroke-width:4" x1="248" x2="248" y1="0" y2="60" fill="none"/><line style="stroke:#000;stroke-width:2" x1="259" x2="259" y1="0" y2="60" fill="none"/><line style="stroke:#000;stroke-width:4" x1="266" x2="266" y1="0" y2="60" fill="none"/><line style="stroke:#000;stroke-width:6" x1="277" x2="277" y1="0" y2="60" fill="none"/><line style="stroke:#000;stroke-width:2" x1="283" x2="283" y1="0" y2="60" fill="none"/><line style="stroke:#000;stroke-width:4" x1="288" x2="288" y1="0" y2="60" fill="none"/><text x="145" y="77.271" text-anchor="middle" style="font-family:Tahoma;font-size:20px;stroke:none;fill:#000">O-BTN.save</text></svg>